<svg xmlns="http://www.w3.org/2000/svg" xmlns:xlink="http://www.w3.org/1999/xlink" width="40" zoomAndPan="magnify" viewBox="0 0 30 30.000001" height="40" preserveAspectRatio="xMidYMid meet" version="1.0"><defs><clipPath id="c1e1c107bd"><path d="M 0.484375 0 L 29.515625 0 L 29.515625 29.03125 L 0.484375 29.03125 Z M 0.484375 0 " clip-rule="nonzero"/></clipPath></defs><path fill="#100f0d" d="M 15.03125 7.226562 L 23.132812 15.671875 L 24.6875 15.671875 L 21.710938 12.441406 L 21.710938 5.21875 L 17.675781 5.21875 L 17.675781 8.058594 L 15.101562 5.265625 C 15.046875 5.207031 14.953125 5.207031 14.898438 5.265625 L 5.3125 15.671875 L 6.925781 15.671875 L 15.03125 7.226562 " fill-opacity="1" fill-rule="nonzero"/><path fill="#100f0d" d="M 15.03125 8.542969 L 7.414062 16.160156 L 7.414062 23.8125 L 12.089844 23.8125 L 12.089844 16.269531 L 17.910156 16.269531 L 17.910156 23.8125 L 22.585938 23.8125 L 22.585938 16.101562 L 15.03125 8.542969 " fill-opacity="1" fill-rule="nonzero"/><g clip-path="url(#c1e1c107bd)"><path fill="#100f0d" d="M 15 27.960938 C 7.574219 27.960938 1.558594 21.941406 1.558594 14.515625 C 1.558594 7.089844 7.574219 1.074219 15 1.074219 C 22.425781 1.074219 28.441406 7.089844 28.441406 14.515625 C 28.441406 21.941406 22.425781 27.960938 15 27.960938 Z M 15 0 C 6.984375 0 0.484375 6.5 0.484375 14.515625 C 0.484375 22.535156 6.984375 29.03125 15 29.03125 C 23.015625 29.03125 29.515625 22.535156 29.515625 14.515625 C 29.515625 6.5 23.015625 0 15 0 " fill-opacity="1" fill-rule="nonzero"/></g></svg>