<svg xmlns="http://www.w3.org/2000/svg" xmlns:xlink="http://www.w3.org/1999/xlink" width="40" zoomAndPan="magnify" viewBox="0 0 30 30.000001" height="40" preserveAspectRatio="xMidYMid meet" version="1.0"><defs><clipPath id="88294bf7bd"><path d="M 0.484375 0 L 29.515625 0 L 29.515625 29.03125 L 0.484375 29.03125 Z M 0.484375 0 " clip-rule="nonzero"/></clipPath><clipPath id="61f5b4d247"><path d="M 15 0 C 6.984375 0 0.484375 6.5 0.484375 14.515625 C 0.484375 22.53125 6.984375 29.03125 15 29.03125 C 23.015625 29.03125 29.515625 22.53125 29.515625 14.515625 C 29.515625 6.5 23.015625 0 15 0 Z M 15 0 " clip-rule="nonzero"/></clipPath><clipPath id="381178477f"><path d="M 5.296875 5.832031 L 24.894531 5.832031 L 24.894531 23.253906 L 5.296875 23.253906 Z M 5.296875 5.832031 " clip-rule="nonzero"/></clipPath></defs><g clip-path="url(#88294bf7bd)"><g clip-path="url(#61f5b4d247)"><path fill="#ffffff" d="M 0.484375 0 L 29.515625 0 L 29.515625 29.03125 L 0.484375 29.03125 Z M 0.484375 0 " fill-opacity="1" fill-rule="nonzero"/><path stroke-linecap="butt" transform="matrix(0.725806, 0, 0, 0.725806, 0.48387, 0.00000193548)" fill="none" stroke-linejoin="miter" d="M 20.000001 -0.00000266667 C 8.956251 -0.00000266667 0.000695111 8.955553 0.000695111 19.999303 C 0.000695111 31.043053 8.956251 39.998609 20.000001 39.998609 C 31.043751 39.998609 39.999307 31.043053 39.999307 19.999303 C 39.999307 8.955553 31.043751 -0.00000266667 20.000001 -0.00000266667 Z M 20.000001 -0.00000266667 " stroke="#000000" stroke-width="3" stroke-opacity="1" stroke-miterlimit="4"/></g></g><g clip-path="url(#381178477f)"><path fill="#000000" d="M 10.605469 20.992188 L 14.695312 20.992188 C 14.855469 20.992188 14.992188 21.074219 15.074219 21.199219 L 15.074219 21.433594 L 10.160156 21.433594 C 10.160156 21.1875 10.359375 20.992188 10.605469 20.992188 Z M 8.621094 10.511719 L 11.074219 10.511719 L 11.074219 10.820312 L 8.621094 10.820312 Z M 8.621094 11.375 L 10.511719 11.375 L 10.511719 11.683594 L 8.621094 11.683594 Z M 8.621094 7.414062 L 11.265625 7.414062 L 11.265625 9.820312 L 8.621094 9.820312 Z M 17.664062 19.644531 L 21.734375 19.644531 L 21.734375 19.953125 L 17.664062 19.953125 Z M 17.664062 20.511719 L 20.800781 20.511719 L 20.800781 20.820312 L 17.664062 20.820312 Z M 16.675781 17.90625 L 22.722656 17.90625 L 22.722656 18.871094 L 16.675781 18.871094 Z M 9.394531 15.117188 L 15.90625 15.117188 L 15.90625 15.425781 L 9.394531 15.425781 Z M 9.394531 15.980469 L 14.414062 15.980469 L 14.414062 16.289062 L 9.394531 16.289062 Z M 12.960938 11.042969 L 17.820312 11.042969 L 17.820312 13.265625 L 12.960938 13.265625 Z M 7.949219 5.832031 L 11.9375 5.832031 C 12.132812 5.832031 12.292969 5.988281 12.292969 6.183594 L 12.292969 13.710938 C 12.292969 13.90625 12.132812 14.0625 11.9375 14.0625 L 7.949219 14.0625 C 7.753906 14.0625 7.59375 13.90625 7.59375 13.710938 L 7.59375 6.183594 C 7.59375 5.988281 7.753906 5.832031 7.949219 5.832031 Z M 9.945312 13.042969 C 10.121094 13.042969 10.261719 13.183594 10.261719 13.355469 C 10.261719 13.53125 10.121094 13.671875 9.945312 13.671875 C 9.769531 13.671875 9.625 13.53125 9.625 13.355469 C 9.625 13.183594 9.769531 13.042969 9.945312 13.042969 Z M 8.191406 6.496094 L 8.785156 6.496094 L 8.785156 6.597656 C 8.785156 6.660156 8.835938 6.710938 8.898438 6.710938 L 10.988281 6.710938 C 11.050781 6.710938 11.101562 6.660156 11.101562 6.597656 L 11.101562 6.496094 L 11.695312 6.496094 C 11.777344 6.496094 11.84375 6.5625 11.84375 6.644531 L 11.84375 12.515625 C 11.84375 12.597656 11.777344 12.660156 11.695312 12.660156 L 8.191406 12.660156 C 8.113281 12.660156 8.046875 12.597656 8.046875 12.515625 L 8.046875 6.644531 C 8.046875 6.5625 8.113281 6.496094 8.191406 6.496094 Z M 15.722656 16.601562 L 23.675781 16.601562 C 23.8125 16.601562 23.925781 16.710938 23.925781 16.847656 L 23.925781 22.238281 L 15.472656 22.238281 L 15.472656 16.847656 C 15.472656 16.710938 15.582031 16.601562 15.722656 16.601562 Z M 14.503906 22.515625 L 18.730469 22.515625 L 18.730469 22.589844 C 18.730469 22.660156 18.792969 22.71875 18.863281 22.71875 L 20.53125 22.71875 C 20.605469 22.71875 20.664062 22.660156 20.664062 22.589844 L 20.664062 22.515625 L 24.890625 22.515625 L 24.890625 22.664062 C 24.890625 22.808594 24.441406 23.253906 24.296875 23.253906 L 15.101562 23.253906 C 14.957031 23.253906 14.503906 22.808594 14.503906 22.664062 Z M 16.082031 17.207031 L 16.082031 21.628906 L 23.3125 21.628906 L 23.3125 17.207031 Z M 5.761719 9.042969 L 6.925781 9.042969 L 6.925781 10.0625 L 6.328125 10.0625 L 6.328125 17.105469 L 15.074219 17.105469 L 15.074219 19.40625 L 5.703125 19.40625 L 5.691406 19.402344 L 5.679688 19.402344 L 5.667969 19.398438 L 5.660156 19.394531 L 5.648438 19.394531 L 5.613281 19.382812 L 5.605469 19.378906 L 5.582031 19.371094 L 5.574219 19.367188 L 5.5625 19.363281 L 5.554688 19.359375 L 5.542969 19.351562 L 5.535156 19.347656 L 5.523438 19.34375 L 5.515625 19.335938 L 5.503906 19.328125 L 5.496094 19.324219 L 5.480469 19.308594 L 5.46875 19.304688 L 5.40625 19.242188 L 5.402344 19.234375 L 5.394531 19.222656 L 5.386719 19.214844 L 5.382812 19.207031 L 5.375 19.199219 L 5.371094 19.1875 L 5.363281 19.179688 L 5.359375 19.167969 L 5.351562 19.160156 L 5.347656 19.148438 L 5.34375 19.140625 L 5.335938 19.117188 L 5.332031 19.109375 L 5.324219 19.085938 L 5.320312 19.078125 L 5.316406 19.066406 L 5.316406 19.054688 L 5.308594 19.03125 L 5.308594 19.019531 L 5.304688 19.011719 L 5.304688 9.5 C 5.304688 9.25 5.507812 9.042969 5.761719 9.042969 Z M 12.960938 9.042969 L 19.539062 9.042969 C 19.792969 9.042969 19.996094 9.25 19.996094 9.5 L 19.996094 16.203125 L 18.972656 16.203125 L 18.972656 10.0625 L 12.960938 10.0625 Z M 12.648438 17.652344 C 12.96875 17.652344 13.226562 17.90625 13.226562 18.222656 C 13.226562 18.542969 12.96875 18.796875 12.648438 18.796875 C 12.332031 18.796875 12.070312 18.542969 12.070312 18.222656 C 12.070312 17.90625 12.332031 17.652344 12.648438 17.652344 Z M 11.082031 20.746094 L 11.359375 19.699219 L 13.941406 19.699219 L 14.21875 20.746094 C 13.171875 20.746094 12.128906 20.746094 11.082031 20.746094 Z M 11.082031 20.746094 " fill-opacity="1" fill-rule="evenodd"/></g></svg>