<svg xmlns="http://www.w3.org/2000/svg" xmlns:xlink="http://www.w3.org/1999/xlink" width="40" zoomAndPan="magnify" viewBox="0 0 30 30.000001" height="40" preserveAspectRatio="xMidYMid meet" version="1.0"><defs><clipPath id="ff51f982fc"><path d="M 0.484375 0 L 29.515625 0 L 29.515625 29.03125 L 0.484375 29.03125 Z M 0.484375 0 " clip-rule="nonzero"/></clipPath></defs><g clip-path="url(#ff51f982fc)"><path fill="#000000" d="M 15 0 C 6.996094 0 0.484375 6.511719 0.484375 14.515625 C 0.484375 22.523438 6.996094 29.03125 15 29.03125 C 23.003906 29.03125 29.515625 22.523438 29.515625 14.515625 C 29.515625 6.511719 23.003906 0 15 0 Z M 15 28.015625 C 7.546875 28.015625 1.503906 21.96875 1.503906 14.515625 C 1.503906 7.0625 7.546875 1.019531 15 1.019531 C 22.453125 1.019531 28.496094 7.0625 28.496094 14.515625 C 28.496094 21.96875 22.453125 28.015625 15 28.015625 Z M 15 28.015625 " fill-opacity="1" fill-rule="nonzero"/></g><path fill="#000000" d="M 22.308594 9.839844 L 17.394531 14.515625 L 22.308594 19.191406 C 22.441406 19.011719 22.523438 18.8125 22.5625 18.59375 L 22.5625 10.4375 C 22.523438 10.21875 22.441406 10.019531 22.308594 9.839844 Z M 22.308594 9.839844 " fill-opacity="1" fill-rule="nonzero"/><path fill="#000000" d="M 15 16.792969 L 12.976562 14.871094 L 8.066406 19.542969 C 8.296875 19.695312 8.550781 19.769531 8.828125 19.769531 L 21.171875 19.769531 C 21.449219 19.769531 21.703125 19.695312 21.933594 19.542969 L 17.023438 14.871094 Z M 15 16.792969 " fill-opacity="1" fill-rule="nonzero"/><path fill="#000000" d="M 7.691406 9.839844 C 7.558594 10.019531 7.476562 10.21875 7.4375 10.4375 L 7.4375 18.59375 C 7.476562 18.8125 7.558594 19.011719 7.691406 19.191406 L 12.605469 14.515625 Z M 7.691406 9.839844 " fill-opacity="1" fill-rule="nonzero"/><path fill="#000000" d="M 12.976562 14.164062 L 15 16.089844 L 21.933594 9.488281 C 21.703125 9.335938 21.449219 9.261719 21.171875 9.261719 L 8.828125 9.261719 C 8.550781 9.261719 8.296875 9.335938 8.066406 9.488281 Z M 12.976562 14.164062 " fill-opacity="1" fill-rule="nonzero"/></svg>