<svg xmlns="http://www.w3.org/2000/svg" xmlns:xlink="http://www.w3.org/1999/xlink" width="40" zoomAndPan="magnify" viewBox="0 0 30 30.000001" height="40" preserveAspectRatio="xMidYMid meet" version="1.0"><defs><clipPath id="2f7b168e53"><path d="M 0.484375 0 L 29.515625 0 L 29.515625 29.03125 L 0.484375 29.03125 Z M 0.484375 0 " clip-rule="nonzero"/></clipPath></defs><path fill="#000000" d="M 15 3.78125 C 12.308594 3.78125 10.125 6.117188 10.125 9 C 10.125 11.882812 12.308594 14.21875 15 14.21875 C 17.691406 14.21875 19.875 11.882812 19.875 9 C 19.875 6.117188 17.691406 3.78125 15 3.78125 " fill-opacity="1" fill-rule="nonzero"/><g clip-path="url(#2f7b168e53)"><path fill="#000000" d="M 23.824219 24.535156 C 23.84375 24.402344 23.855469 24.265625 23.855469 24.125 L 23.855469 22.175781 C 23.855469 18.914062 21.210938 16.273438 17.949219 16.273438 L 12.050781 16.273438 C 8.789062 16.273438 6.144531 18.914062 6.144531 22.175781 L 6.144531 24.125 C 6.144531 24.265625 6.15625 24.402344 6.175781 24.535156 C 3.398438 22.085938 1.640625 18.503906 1.640625 14.515625 C 1.640625 7.148438 7.632812 1.15625 15 1.15625 C 22.367188 1.15625 28.359375 7.148438 28.359375 14.515625 C 28.359375 18.503906 26.601562 22.085938 23.824219 24.535156 Z M 15 0 C 6.996094 0 0.484375 6.511719 0.484375 14.515625 C 0.484375 22.519531 6.996094 29.03125 15 29.03125 C 23.003906 29.03125 29.515625 22.519531 29.515625 14.515625 C 29.515625 6.511719 23.003906 0 15 0 " fill-opacity="1" fill-rule="nonzero"/></g></svg>