<svg xmlns="http://www.w3.org/2000/svg" xmlns:xlink="http://www.w3.org/1999/xlink" width="40" zoomAndPan="magnify" viewBox="0 0 30 30.000001" height="40" preserveAspectRatio="xMidYMid meet" version="1.0"><defs><clipPath id="2a9c464e65"><path d="M 0.484375 0 L 29.515625 0 L 29.515625 29.03125 L 0.484375 29.03125 Z M 0.484375 0 " clip-rule="nonzero"/></clipPath></defs><g clip-path="url(#2a9c464e65)"><path fill="#000000" d="M 20.726562 1.105469 C 22.484375 1.832031 24.035156 2.875 25.335938 4.179688 C 26.640625 5.480469 27.683594 7.03125 28.410156 8.789062 C 29.121094 10.535156 29.515625 12.464844 29.515625 14.515625 C 29.515625 16.570312 29.121094 18.5 28.410156 20.242188 C 27.683594 22 26.640625 23.550781 25.335938 24.851562 C 24.035156 26.15625 22.484375 27.199219 20.726562 27.925781 C 18.980469 28.640625 17.050781 29.03125 15 29.03125 C 12.949219 29.03125 11.019531 28.640625 9.273438 27.925781 C 7.515625 27.199219 5.964844 26.15625 4.664062 24.851562 C 3.359375 23.550781 2.316406 22 1.589844 20.242188 C 0.878906 18.5 0.484375 16.570312 0.484375 14.515625 C 0.484375 12.464844 0.878906 10.535156 1.589844 8.789062 C 2.316406 7.03125 3.359375 5.480469 4.664062 4.179688 C 5.964844 2.875 7.515625 1.832031 9.273438 1.105469 C 11.019531 0.394531 12.949219 0 15 0 C 17.050781 0 18.980469 0.394531 20.726562 1.105469 Z M 20.382812 27.054688 C 22.007812 26.390625 23.46875 25.40625 24.6875 24.203125 C 25.890625 22.984375 26.875 21.523438 27.539062 19.898438 C 28.214844 18.253906 28.582031 16.445312 28.582031 14.515625 C 28.582031 12.585938 28.214844 10.78125 27.539062 9.132812 C 26.875 7.511719 25.890625 6.046875 24.6875 4.832031 C 23.46875 3.625 22.007812 2.644531 20.382812 1.980469 C 18.738281 1.304688 16.929688 0.933594 15 0.933594 C 13.070312 0.933594 11.261719 1.304688 9.617188 1.980469 C 7.992188 2.644531 6.53125 3.625 5.3125 4.832031 C 4.109375 6.046875 3.125 7.511719 2.460938 9.132812 C 1.785156 10.78125 1.417969 12.585938 1.417969 14.515625 C 1.417969 16.445312 1.785156 18.253906 2.460938 19.898438 C 3.125 21.523438 4.109375 22.984375 5.3125 24.203125 C 6.53125 25.40625 7.992188 26.390625 9.617188 27.054688 C 11.261719 27.730469 13.070312 28.097656 15 28.097656 C 16.929688 28.097656 18.738281 27.730469 20.382812 27.054688 Z M 20.382812 27.054688 " fill-opacity="1" fill-rule="evenodd"/></g><path fill="#000000" d="M 12.566406 8.640625 C 12.542969 8.640625 12.515625 8.652344 12.492188 8.664062 C 12.429688 8.691406 12.382812 8.726562 12.332031 8.765625 C 12.296875 8.8125 12.257812 8.863281 12.234375 8.921875 C 12.222656 8.949219 12.210938 8.972656 12.210938 8.996094 C 12.199219 9.023438 12.199219 9.035156 12.199219 9.058594 L 12.199219 9.539062 L 17.730469 9.539062 L 17.730469 9.058594 C 17.730469 9.035156 17.730469 9.023438 17.714844 8.996094 C 17.714844 8.972656 17.703125 8.949219 17.691406 8.921875 C 17.667969 8.875 17.628906 8.8125 17.582031 8.777344 C 17.53125 8.726562 17.484375 8.691406 17.421875 8.664062 C 17.398438 8.652344 17.371094 8.640625 17.347656 8.640625 C 17.324219 8.628906 17.3125 8.628906 17.285156 8.628906 L 12.628906 8.628906 C 12.601562 8.628906 12.589844 8.628906 12.566406 8.640625 Z M 11.261719 9.058594 C 11.261719 8.960938 11.277344 8.875 11.300781 8.789062 C 11.3125 8.703125 11.347656 8.617188 11.386719 8.53125 C 11.449219 8.371094 11.558594 8.234375 11.679688 8.113281 C 11.804688 7.988281 11.9375 7.878906 12.097656 7.816406 C 12.183594 7.78125 12.269531 7.742188 12.355469 7.730469 C 12.445312 7.707031 12.53125 7.695312 12.628906 7.695312 L 17.285156 7.695312 C 17.382812 7.695312 17.46875 7.707031 17.554688 7.730469 C 17.644531 7.742188 17.730469 7.78125 17.816406 7.816406 C 17.972656 7.878906 18.109375 7.988281 18.234375 8.113281 C 18.367188 8.222656 18.464844 8.371094 18.539062 8.53125 C 18.578125 8.605469 18.613281 8.691406 18.625 8.777344 C 18.652344 8.875 18.664062 8.960938 18.664062 9.058594 L 18.664062 9.539062 L 22.054688 9.539062 C 22.769531 9.539062 23.492188 10.25 23.492188 10.964844 L 23.492188 12.253906 L 16.03125 14.699219 C 15.984375 14.675781 15.933594 14.664062 15.898438 14.652344 C 15.847656 14.640625 15.785156 14.640625 15.738281 14.640625 L 14.1875 14.640625 C 14.140625 14.640625 14.078125 14.640625 14.027344 14.652344 C 13.992188 14.664062 13.941406 14.675781 13.90625 14.6875 L 6.445312 12.253906 L 6.445312 10.964844 C 6.445312 10.25 7.15625 9.539062 7.871094 9.539062 L 11.261719 9.539062 Z M 14.175781 15.265625 L 15.75 15.265625 C 15.761719 15.265625 15.773438 15.265625 15.785156 15.265625 C 15.800781 15.277344 15.824219 15.289062 15.835938 15.316406 C 15.859375 15.328125 15.871094 15.351562 15.886719 15.363281 C 15.886719 15.375 15.886719 15.375 15.886719 15.390625 L 15.898438 15.402344 L 15.898438 15.929688 L 15.886719 15.941406 C 15.886719 15.953125 15.886719 15.964844 15.886719 15.964844 C 15.871094 15.992188 15.859375 16.015625 15.835938 16.027344 C 15.824219 16.050781 15.800781 16.066406 15.773438 16.078125 C 15.773438 16.078125 15.761719 16.078125 15.75 16.078125 L 15.738281 16.089844 L 14.1875 16.089844 L 14.175781 16.078125 C 14.164062 16.078125 14.152344 16.078125 14.152344 16.078125 C 14.128906 16.066406 14.101562 16.050781 14.089844 16.027344 C 14.066406 16.015625 14.054688 15.992188 14.042969 15.964844 C 14.042969 15.964844 14.042969 15.953125 14.042969 15.941406 L 14.042969 15.390625 C 14.042969 15.375 14.042969 15.375 14.042969 15.363281 C 14.054688 15.351562 14.066406 15.328125 14.089844 15.316406 C 14.101562 15.289062 14.128906 15.277344 14.140625 15.265625 C 14.152344 15.265625 14.164062 15.265625 14.175781 15.265625 Z M 16.5 15.242188 C 16.5 15.230469 16.488281 15.214844 16.488281 15.203125 L 23.492188 12.90625 L 23.492188 19.371094 C 23.492188 20.085938 22.769531 20.808594 22.054688 20.808594 L 7.871094 20.808594 C 7.15625 20.808594 6.445312 20.085938 6.445312 19.371094 L 6.445312 12.90625 L 13.4375 15.203125 C 13.4375 15.214844 13.425781 15.230469 13.425781 15.242188 C 13.414062 15.289062 13.414062 15.351562 13.414062 15.402344 L 13.414062 15.929688 C 13.414062 15.980469 13.414062 16.039062 13.425781 16.089844 C 13.4375 16.136719 13.453125 16.1875 13.476562 16.238281 C 13.511719 16.324219 13.574219 16.398438 13.648438 16.46875 C 13.722656 16.542969 13.796875 16.605469 13.882812 16.640625 C 13.929688 16.667969 13.980469 16.679688 14.027344 16.691406 C 14.078125 16.703125 14.140625 16.714844 14.1875 16.714844 L 15.738281 16.714844 C 15.785156 16.714844 15.847656 16.703125 15.898438 16.691406 C 15.945312 16.679688 15.996094 16.667969 16.042969 16.640625 C 16.128906 16.605469 16.203125 16.542969 16.277344 16.46875 C 16.351562 16.398438 16.414062 16.324219 16.449219 16.238281 C 16.476562 16.1875 16.488281 16.136719 16.5 16.089844 C 16.511719 16.039062 16.523438 15.980469 16.523438 15.929688 L 16.523438 15.402344 C 16.523438 15.351562 16.511719 15.289062 16.5 15.242188 Z M 16.5 15.242188 " fill-opacity="1" fill-rule="evenodd"/></svg>